<svg xmlns="http://www.w3.org/2000/svg" width="2048" height="2048" viewBox="0 0 2048 2048" version="1.1"><path d="M 708.821 707.750 C 724.948 707.904, 751.048 707.904, 766.821 707.749 C 782.595 707.595, 769.400 707.468, 737.500 707.468 C 705.600 707.468, 692.695 707.595, 708.821 707.750 M 945.750 707.749 C 960.187 707.905, 983.812 707.905, 998.250 707.749 C 1012.688 707.593, 1000.875 707.465, 972 707.465 C 943.125 707.465, 931.313 707.593, 945.750 707.749 M 1049.654 707.750 C 1049.234 708.430, 1110.531 708.423, 1193 707.734 C 1210.325 707.589, 1185.264 707.365, 1137.309 707.235 C 1089.354 707.106, 1049.909 707.337, 1049.654 707.750 M 1319.672 707.750 C 1357.716 707.895, 1420.266 707.895, 1458.672 707.750 C 1497.077 707.605, 1465.950 707.486, 1389.500 707.486 C 1313.050 707.486, 1281.627 707.605, 1319.672 707.750 M 1674.328 707.750 C 1715.484 707.894, 1782.534 707.894, 1823.328 707.750 C 1864.123 707.605, 1830.450 707.487, 1748.500 707.487 C 1666.550 707.487, 1633.173 707.605, 1674.328 707.750 M 143 738.853 L 143 769.707 154.145 774.934 C 177.243 785.769, 201.933 795.487, 221.500 801.445 C 226.450 802.953, 231.625 804.579, 233 805.059 C 238.188 806.871, 255.989 810.964, 269 813.336 C 288.926 816.970, 298.273 818, 311.302 818 C 319.115 818, 323 818.364, 323 819.096 C 323 822.283, 319.238 825.971, 313.108 828.795 C 286.478 841.061, 263.266 846, 232.246 846 C 205.268 846, 179.785 841.876, 152.089 833.028 C 148.597 831.913, 145.123 831, 144.370 831 C 143.248 831, 143 835.407, 143 855.383 L 143 879.767 145.750 880.391 C 147.262 880.734, 156.432 881.302, 166.127 881.653 C 200.562 882.902, 235.077 877.681, 272 865.637 C 277.775 863.753, 283.625 861.748, 285 861.182 C 286.375 860.616, 291.373 858.543, 296.108 856.576 C 300.842 854.609, 305.241 853, 305.883 853 C 307.421 853, 305.256 857.167, 298.106 867.969 C 282.176 892.035, 256.202 908.852, 222.300 917.049 C 203.867 921.506, 197.142 922.220, 170 922.608 L 143.500 922.986 143.500 984.243 L 143.500 1045.500 147.325 1055.500 C 162.985 1096.437, 180.443 1129.095, 201.852 1157.500 C 217.879 1178.764, 239.035 1200.562, 259 1216.383 C 263.675 1220.088, 268.257 1223.737, 269.182 1224.491 C 271.962 1226.760, 291.008 1239.393, 298.462 1243.912 C 316.463 1254.826, 359.710 1274.295, 366 1274.317 C 367.375 1274.321, 374.575 1271.909, 382 1268.956 C 447.507 1242.902, 499.770 1201.694, 539.208 1145 C 553.419 1124.572, 569.529 1093.722, 581.114 1064.754 C 589.880 1042.831, 589 1063.970, 589 875.370 L 589 708 547 708 L 505 708 505 938.449 L 505 1168.897 496.386 1177.949 C 491.649 1182.927, 487.375 1187, 486.889 1187 C 486.382 1187, 485.898 1112.538, 485.753 1012.250 L 485.500 837.500 477 837.500 L 468.500 837.500 468.247 1021.141 L 467.995 1204.782 459.904 1210.891 C 455.454 1214.251, 451.405 1217, 450.907 1217 C 450.368 1217, 450 1152.209, 450 1057.500 L 450 898 441 898 L 432 898 432 1064.315 L 432 1230.630 428.750 1232.329 C 426.963 1233.263, 423.250 1235.357, 420.500 1236.981 C 417.750 1238.605, 414.938 1239.949, 414.250 1239.967 C 413.256 1239.993, 413 1211.251, 413 1099.500 L 413 959 404.503 959 L 396.007 959 395.753 1104.250 L 395.500 1249.500 389 1252.684 C 385.425 1254.435, 381.938 1255.897, 381.250 1255.934 C 380.257 1255.986, 380 1232.470, 380 1141.504 L 380 1027.009 267.750 1026.754 L 155.500 1026.500 155.230 1004.570 C 155.066 991.214, 155.343 982.257, 155.939 981.661 C 156.478 981.122, 160.649 980.342, 165.209 979.927 C 219.833 974.954, 268.718 952.458, 299.293 918.225 C 315.019 900.617, 324.040 884.439, 338.975 847.062 C 350.984 817.008, 357.549 804.732, 371.360 786.500 C 376.925 779.154, 392.256 763.060, 399.522 756.937 C 411.316 746.999, 434.260 732.158, 446.626 726.470 C 452.262 723.877, 465.319 718.165, 469.500 716.462 C 474.100 714.589, 466.595 714.885, 456.164 716.988 C 432.587 721.742, 399.857 735.361, 383.500 747.225 C 364.845 760.756, 351.051 774.463, 340.345 790.108 L 333.500 800.111 324 799.566 C 308.615 798.685, 275.908 790.690, 262.500 784.534 C 260.850 783.776, 257.166 782.239, 254.314 781.118 C 247.203 778.323, 227.109 768.170, 217.962 762.751 C 195.523 749.456, 171.102 731.470, 148.500 711.593 C 146.300 709.658, 144.162 708.058, 143.750 708.038 C 143.338 708.017, 143 721.884, 143 738.853 M 1390.306 727.747 C 1396.800 727.922, 1407.150 727.921, 1413.306 727.746 C 1419.463 727.571, 1414.150 727.428, 1401.500 727.429 C 1388.850 727.429, 1383.813 727.573, 1390.306 727.747 M 1687.296 727.744 C 1691.583 727.932, 1698.333 727.931, 1702.296 727.742 C 1706.258 727.552, 1702.750 727.399, 1694.500 727.400 C 1686.250 727.401, 1683.008 727.556, 1687.296 727.744 M 1799.750 727.744 C 1804.287 727.929, 1811.713 727.929, 1816.250 727.744 C 1820.787 727.559, 1817.075 727.407, 1808 727.407 C 1798.925 727.407, 1795.213 727.559, 1799.750 727.744 M 1296.485 875 C 1296.485 944.025, 1296.604 972.262, 1296.750 937.750 C 1296.896 903.237, 1296.896 846.762, 1296.750 812.250 C 1296.604 777.737, 1296.485 805.975, 1296.485 875 M 1178.485 883 C 1178.485 954.225, 1178.604 983.362, 1178.750 947.750 C 1178.895 912.137, 1178.895 853.862, 1178.750 818.250 C 1178.604 782.637, 1178.485 811.775, 1178.485 883 M 429.422 768.471 C 406.524 779.829, 405.990 811.218, 428.500 822.737 C 443.596 830.462, 462.397 823.649, 469.468 807.891 C 474.346 797.022, 472.018 783.512, 463.824 775.131 C 457.637 768.803, 452.553 766.633, 443.070 766.275 C 435.540 765.991, 433.884 766.257, 429.422 768.471 M 963.476 843 C 963.476 885.625, 963.599 903.063, 963.750 881.750 C 963.900 860.438, 963.900 825.563, 963.750 804.250 C 963.599 782.938, 963.476 800.375, 963.476 843 M 172.531 1081.950 C 172.205 1082.478, 174.431 1087.880, 177.477 1093.955 L 183.017 1105 274.540 1105 L 366.063 1105 365.782 1093.250 L 365.500 1081.500 269.312 1081.245 C 208.668 1081.084, 172.905 1081.345, 172.531 1081.950 M 220 1159.799 C 220 1160.684, 226.607 1168.422, 234.902 1177.250 L 240.304 1183 303.152 1183 L 366 1183 366 1171 L 366 1159 293 1159 C 252.850 1159, 220 1159.360, 220 1159.799 M 836.445 1206.500 C 836.444 1223.550, 836.581 1230.666, 836.748 1222.312 C 836.915 1213.959, 836.915 1200.009, 836.748 1191.312 C 836.582 1182.616, 836.445 1189.450, 836.445 1206.500 M 1618.440 1207.500 C 1618.440 1222.900, 1618.579 1229.060, 1618.748 1221.189 C 1618.917 1213.319, 1618.917 1200.719, 1618.747 1193.189 C 1618.578 1185.660, 1618.439 1192.100, 1618.440 1207.500 M 1847.429 1214.500 C 1847.429 1227.150, 1847.573 1232.187, 1847.747 1225.694 C 1847.922 1219.200, 1847.921 1208.850, 1847.746 1202.694 C 1847.571 1196.537, 1847.428 1201.850, 1847.429 1214.500 M 311.206 1236.119 C 312.304 1239.411, 355.872 1259, 362.096 1259 L 366.063 1259 365.782 1247.250 L 365.500 1235.500 338.161 1235.234 C 317.874 1235.036, 310.922 1235.265, 311.206 1236.119 M 204.382 1311.500 C 204.384 1318.100, 204.546 1320.670, 204.741 1317.211 C 204.937 1313.752, 204.936 1308.352, 204.738 1305.211 C 204.540 1302.070, 204.380 1304.900, 204.382 1311.500 M 354.395 1317.500 C 354.396 1325.200, 354.553 1328.218, 354.743 1324.206 C 354.934 1320.195, 354.932 1313.895, 354.741 1310.206 C 354.549 1306.518, 354.393 1309.800, 354.395 1317.500 M 1027.392 1320 C 1027.392 1327.425, 1027.549 1330.463, 1027.742 1326.750 C 1027.934 1323.037, 1027.934 1316.963, 1027.742 1313.250 C 1027.549 1309.537, 1027.392 1312.575, 1027.392 1320 M 1053.395 1323.500 C 1053.396 1331.200, 1053.553 1334.218, 1053.743 1330.206 C 1053.934 1326.195, 1053.932 1319.895, 1053.741 1316.206 C 1053.549 1312.518, 1053.393 1315.800, 1053.395 1323.500 M 1409.392 1328 C 1409.392 1335.425, 1409.549 1338.463, 1409.742 1334.750 C 1409.934 1331.037, 1409.934 1324.963, 1409.742 1321.250 C 1409.549 1317.537, 1409.392 1320.575, 1409.392 1328" stroke="none" fill="#d43338" fill-rule="evenodd"/><path d="M 676 711.981 C 676 716.446, 675.238 716.065, 687.998 717.977 C 699.721 719.734, 705.995 724.265, 718.488 740 L 726.031 749.500 725.724 881 C 725.388 1024.966, 725.680 1017.865, 719.596 1029.769 C 713.813 1041.085, 702.032 1047.232, 683.011 1048.859 C 674.962 1049.548, 674.107 1050.306, 675.430 1055.579 L 676.038 1058 736.019 1058 L 796 1058 796 1053.500 L 796 1049 788.538 1049 C 774.157 1049, 757.773 1041.440, 751.820 1032.057 C 750.229 1029.551, 747.932 1024.575, 746.714 1021 L 744.500 1014.500 744.223 894.605 C 743.963 782.176, 744.051 774.797, 745.634 776.105 C 746.563 776.872, 750.513 781.606, 754.411 786.624 C 761.742 796.059, 801.409 846.535, 810.503 858 C 813.339 861.575, 820.429 870.575, 826.258 878 C 846.567 903.869, 894.277 964.589, 904.047 977 C 909.459 983.875, 927.318 1006.600, 943.734 1027.500 L 973.581 1065.500 977.541 1065.500 L 981.500 1065.500 982.020 908 C 982.593 734.139, 982.141 745.862, 988.749 733.719 C 993.724 724.578, 999.766 721.241, 1017 718.116 L 1026.500 716.393 1026.807 712.196 L 1027.115 708 971.125 708 C 918.671 708, 915.101 708.111, 914.600 709.750 C 914.306 710.712, 914.202 712.400, 914.369 713.500 C 914.687 715.588, 914.742 715.604, 930 717.817 C 942.514 719.632, 954.049 727.334, 958.155 736.617 C 963.288 748.221, 963.304 748.526, 963.732 838.750 C 963.996 894.377, 963.793 923, 963.134 923 C 962.586 923, 954.595 913.212, 945.377 901.250 C 936.159 889.288, 918.727 866.675, 906.638 851 C 894.549 835.325, 881.698 818.652, 878.079 813.949 C 867.981 800.825, 844.102 769.899, 828 749.091 C 820.025 738.785, 809.675 725.338, 805 719.207 L 796.500 708.061 736.250 708.031 L 676 708 676 711.981 M 1049.926 708.250 C 1047.870 715.167, 1049.261 716.316, 1060.143 716.685 C 1072.814 717.115, 1078.114 718.372, 1084.513 722.465 C 1092.203 727.384, 1094.892 732.125, 1096.092 742.880 C 1096.693 748.260, 1096.959 804.388, 1096.784 889.057 L 1096.500 1026.500 1094.188 1031.607 C 1088.895 1043.302, 1079.964 1048.035, 1061.811 1048.770 C 1054.416 1049.069, 1049.961 1049.659, 1049.685 1050.378 C 1049.315 1051.342, 1049.400 1054.476, 1049.872 1057.250 C 1049.943 1057.662, 1089.600 1058, 1138 1058 L 1226 1058 1226 1053.623 L 1226 1049.247 1214.250 1048.811 C 1204.112 1048.436, 1201.660 1047.996, 1196.374 1045.607 C 1189.396 1042.453, 1183.822 1037.239, 1181.519 1031.712 C 1180.652 1029.628, 1179.516 1023.553, 1178.996 1018.212 C 1177.799 1005.903, 1177.740 760.741, 1178.932 748.433 C 1180.105 736.315, 1181.624 731.708, 1186.138 726.580 C 1192.016 719.903, 1198.012 717.783, 1213 717.084 L 1225.500 716.500 1225.807 712.250 L 1226.115 708 1138.057 708 C 1089.626 708, 1049.967 708.112, 1049.926 708.250 M 1249 711.893 C 1249 716.063, 1250.288 717.215, 1254.123 716.476 C 1258.149 715.701, 1275.159 717.977, 1279.417 719.860 C 1285.033 722.345, 1290.677 727.446, 1293.131 732.257 C 1294.308 734.564, 1295.522 739.794, 1296.054 744.851 C 1297.341 757.075, 1297.265 1004.690, 1295.970 1018.340 C 1293.858 1040.620, 1285.593 1047.760, 1260.750 1048.769 L 1249 1049.247 1249 1053.623 L 1249 1058 1395.421 1058 L 1541.841 1058 1542.366 1055.250 C 1543.256 1050.584, 1544.832 1039.447, 1547.991 1015.500 C 1549.660 1002.850, 1551.462 989.800, 1551.996 986.500 C 1553.442 977.559, 1557 950.698, 1557 948.721 C 1557 947.362, 1556.102 947, 1552.728 947 L 1548.457 947 1545.211 957.250 C 1541.427 969.200, 1533.055 986.379, 1526.683 995.267 C 1521.573 1002.394, 1508.643 1015.185, 1502 1019.684 C 1492.120 1026.374, 1481.409 1030.849, 1466 1034.721 C 1456.207 1037.182, 1453.645 1037.388, 1427.946 1037.771 C 1410.282 1038.035, 1398.972 1037.800, 1396.437 1037.118 C 1390.567 1035.537, 1384.468 1031.178, 1382.011 1026.807 C 1378.614 1020.761, 1378.057 1009.635, 1378.027 947.250 L 1378 890 1384.816 890 C 1393.735 890, 1401.775 891.448, 1410.964 894.710 C 1417.295 896.957, 1419.420 898.361, 1424.964 903.959 C 1436.766 915.876, 1445.365 935.684, 1448.860 959 L 1450.584 970.500 1455.297 970.805 L 1460.011 971.110 1459.755 879.805 L 1459.500 788.500 1455.031 788.500 L 1450.563 788.500 1448.848 800.500 C 1444.031 834.215, 1432.234 855.766, 1413.808 864.512 C 1406.208 868.119, 1389.518 871.425, 1382.064 870.799 L 1378.500 870.500 1378.500 799 L 1378.500 727.500 1409 727.654 C 1444.063 727.830, 1458.825 729.340, 1470.749 733.971 C 1488.456 740.846, 1501.587 751.868, 1508.963 766.046 C 1513.609 774.975, 1520.112 794.054, 1521.986 804.250 L 1523.226 811 1528.113 811 L 1533 811 1533 759.500 L 1533 708 1391 708 L 1249 708 1249 711.893 M 1599.240 754.750 L 1599.500 801.500 1604 801.500 L 1608.500 801.500 1609.819 795.500 C 1615.012 771.876, 1622.349 756.849, 1635.006 743.913 C 1643.958 734.764, 1655.323 730.194, 1674.500 728.031 C 1685.293 726.814, 1707.978 726.700, 1709.797 727.853 C 1710.852 728.522, 1711.027 755.947, 1710.738 875.088 C 1710.350 1035.008, 1710.616 1027.938, 1704.653 1036.948 C 1699.520 1044.705, 1687.986 1049, 1672.290 1049 L 1663 1049 1663 1053.500 L 1663 1058 1750.892 1058 L 1838.783 1058 1839.432 1055.415 C 1840.858 1049.734, 1840.013 1049.283, 1827.099 1048.822 C 1816.205 1048.434, 1814.726 1048.140, 1808.669 1045.158 C 1801.459 1041.608, 1795.739 1035.813, 1793.772 1030.065 C 1792.839 1027.338, 1792.481 991.254, 1792.248 876.594 L 1791.944 726.688 1813.722 727.341 C 1825.827 727.704, 1838.249 728.601, 1841.689 729.360 C 1858.311 733.030, 1874.180 746.215, 1882.175 763 C 1884.401 767.675, 1886.551 772.175, 1886.952 773 C 1887.823 774.792, 1892.369 789.467, 1894.232 796.500 C 1895.535 801.419, 1895.625 801.505, 1899.778 801.807 L 1904 802.115 1904 755.057 L 1904 708 1751.490 708 L 1598.980 708 1599.240 754.750 M 736.500 1118.935 C 706.815 1123.825, 683.745 1145.726, 678.341 1174.146 C 675.658 1188.252, 677.470 1206.466, 682.654 1217.500 C 691.204 1235.699, 709.648 1250.016, 730.368 1254.537 C 736.728 1255.924, 741.328 1256.149, 754.368 1255.710 C 771.410 1255.136, 782.514 1253.020, 795.513 1247.867 L 801.500 1245.494 802 1227.316 C 802.590 1205.880, 803.143 1204.464, 811.851 1202.105 C 814.865 1201.289, 817 1200.143, 817 1199.341 C 817 1198.205, 811.759 1198.016, 786.333 1198.236 C 764.872 1198.421, 755.554 1198.835, 755.294 1199.616 C 755.071 1200.285, 756.782 1200.941, 759.576 1201.256 C 764.671 1201.830, 768.811 1204.365, 770.748 1208.096 C 771.635 1209.806, 771.924 1215.521, 771.748 1227.900 L 771.500 1245.301 767.500 1246.833 C 764.795 1247.869, 759.777 1248.387, 752 1248.432 C 741.270 1248.495, 740.106 1248.306, 734.606 1245.606 C 723.835 1240.318, 718.177 1232.627, 713.789 1217.309 C 711.802 1210.372, 711.550 1207.210, 711.540 1189 C 711.531 1172.155, 711.861 1167.252, 713.391 1161.500 C 717.722 1145.214, 725.187 1134.511, 735.875 1129.262 C 740.985 1126.753, 742.507 1126.500, 752.500 1126.505 C 762.437 1126.509, 764.076 1126.779, 769.461 1129.296 C 772.740 1130.829, 777.811 1133.925, 780.730 1136.177 C 786.514 1140.640, 794.470 1151.681, 797.355 1159.250 C 798.351 1161.862, 799.803 1164, 800.583 1164 C 801.765 1164, 802 1160.181, 802 1141 C 802 1126.528, 801.634 1118, 801.013 1118 C 800.469 1118, 798.878 1119.817, 797.475 1122.039 C 796.073 1124.260, 793.833 1126.493, 792.497 1127.001 C 789.948 1127.970, 789.623 1127.890, 772.500 1122.055 C 765.234 1119.578, 761.381 1118.903, 752.500 1118.549 C 746.450 1118.308, 739.250 1118.482, 736.500 1118.935 M 1626.500 1119.412 C 1616.933 1123.664, 1614.430 1136.017, 1621.632 1143.433 C 1627.480 1149.455, 1637.121 1149.210, 1642.427 1142.905 C 1645.560 1139.181, 1646.411 1136.105, 1645.725 1130.986 C 1644.422 1121.269, 1635.036 1115.618, 1626.500 1119.412 M 1370 1122.381 C 1370 1123.176, 1371.842 1124.226, 1374.339 1124.855 C 1377.485 1125.647, 1379.958 1127.317, 1383.339 1130.931 L 1388 1135.914 1388 1186.989 C 1388 1242.368, 1387.987 1242.505, 1382.512 1246.812 C 1381.010 1247.994, 1377.607 1249.248, 1374.951 1249.601 C 1372.269 1249.957, 1369.886 1250.855, 1369.592 1251.621 C 1369.152 1252.768, 1372.932 1253, 1392.115 1253 C 1410.112 1253, 1415.075 1252.726, 1414.750 1251.750 C 1414.522 1251.063, 1413.697 1250.417, 1412.917 1250.317 C 1402.189 1248.928, 1397.733 1245.647, 1396.075 1237.913 C 1395.403 1234.779, 1395 1216.765, 1395 1189.828 C 1395 1150.638, 1395.143 1146.874, 1396.584 1148.070 C 1397.455 1148.793, 1407.008 1160.660, 1417.812 1174.442 C 1437.688 1199.795, 1444.854 1208.867, 1447.876 1212.500 C 1448.791 1213.600, 1452.456 1218.278, 1456.020 1222.895 C 1459.584 1227.513, 1464.854 1234.263, 1467.730 1237.895 C 1470.607 1241.528, 1474.882 1247.062, 1477.230 1250.193 C 1479.579 1253.325, 1482.287 1255.912, 1483.250 1255.943 C 1484.897 1255.997, 1485 1252.590, 1485 1197.943 C 1485 1159.110, 1485.363 1138.442, 1486.098 1135.527 C 1487.569 1129.682, 1489.978 1127.353, 1496.518 1125.452 C 1499.860 1124.480, 1502 1123.300, 1502 1122.429 C 1502 1121.236, 1498.537 1121, 1481 1121 C 1464.748 1121, 1460 1121.286, 1460 1122.263 C 1460 1122.963, 1462.341 1124.079, 1465.250 1124.766 C 1468.138 1125.448, 1471.625 1126.835, 1473 1127.848 C 1477.507 1131.171, 1477.935 1134.669, 1478.043 1169.086 C 1478.098 1186.743, 1477.960 1201.373, 1477.737 1201.596 C 1477.329 1202.004, 1474.579 1198.525, 1446 1161.442 C 1437.475 1150.380, 1426.964 1136.756, 1422.643 1131.165 L 1414.786 1121 1392.393 1121 C 1374.010 1121, 1370 1121.247, 1370 1122.381 M 1711 1122.811 C 1711 1124.227, 1712.121 1124.881, 1715.750 1125.582 C 1723.265 1127.034, 1723.997 1129.355, 1723.998 1151.750 C 1723.999 1161.787, 1723.769 1170, 1723.486 1170 C 1723.203 1170, 1720.513 1167.997, 1717.508 1165.549 C 1711.471 1160.632, 1707.805 1159.557, 1699.201 1160.179 C 1685.140 1161.196, 1674.723 1170.797, 1668.472 1188.500 C 1666.253 1194.784, 1665.341 1215.084, 1666.901 1223.463 C 1669.306 1236.380, 1677.028 1247.954, 1686.417 1252.711 C 1697.548 1258.352, 1709.265 1256.401, 1718.057 1247.442 C 1720.455 1244.999, 1722.773 1243, 1723.208 1243 C 1723.644 1243, 1724 1245.955, 1724 1249.567 C 1724 1255.351, 1724.209 1256.074, 1725.750 1255.621 C 1726.713 1255.339, 1735.037 1253.660, 1744.250 1251.889 C 1756.177 1249.598, 1761 1248.277, 1761 1247.304 C 1761 1246.552, 1760.213 1245.684, 1759.250 1245.375 C 1754.021 1243.695, 1752.062 1242.653, 1751.322 1241.158 C 1750.870 1240.246, 1750.275 1212.950, 1750 1180.500 L 1749.500 1121.500 1730.250 1121.228 C 1712.074 1120.972, 1711 1121.060, 1711 1122.811 M 1118.487 1137.651 C 1112.969 1146.117, 1100.637 1159.454, 1092.583 1165.667 C 1087.272 1169.765, 1088.081 1172, 1094.877 1172 L 1099.817 1172 1100.174 1205.250 C 1100.496 1235.342, 1100.707 1238.832, 1102.392 1242 C 1110.030 1256.361, 1129.375 1258.807, 1140.638 1246.835 C 1142.364 1245.001, 1144.501 1242.060, 1145.388 1240.300 C 1148.656 1233.813, 1146.787 1233.204, 1141.286 1238.965 C 1136.580 1243.893, 1133.246 1244.829, 1129.937 1242.151 L 1127.500 1240.179 1127.212 1206.125 L 1126.925 1172.071 1137.212 1171.785 L 1147.500 1171.500 1147.500 1167 L 1147.500 1162.500 1137.275 1162.215 L 1127.049 1161.931 1126.775 1145.798 C 1126.586 1134.716, 1126.139 1129.544, 1125.346 1129.281 C 1124.712 1129.070, 1121.625 1132.836, 1118.487 1137.651 M 882.259 1162.101 C 877.937 1164.240, 869.459 1172.722, 866.304 1178.063 C 865.343 1179.689, 864.127 1180.876, 863.601 1180.700 C 863.076 1180.525, 862.613 1176.358, 862.573 1171.441 L 862.500 1162.500 845.083 1162.500 C 832.365 1162.500, 827.558 1162.826, 827.264 1163.708 C 827.043 1164.372, 828.431 1165.571, 830.350 1166.373 C 836.512 1168.947, 836.500 1168.869, 836.500 1208.045 C 836.500 1240.556, 836.347 1243.824, 834.705 1246.329 C 833.686 1247.883, 831.631 1249.324, 829.955 1249.659 C 828.330 1249.984, 827 1250.869, 827 1251.625 C 827 1252.753, 831.227 1253, 850.500 1253 C 870.722 1253, 874 1252.791, 874 1251.500 C 874 1250.675, 873.121 1250, 872.047 1250 C 868.967 1250, 865.328 1247.981, 864.028 1245.551 C 863.168 1243.945, 862.946 1236.800, 863.232 1219.912 C 863.580 1199.377, 863.885 1195.783, 865.708 1190.666 C 869.735 1179.365, 875.981 1176.142, 882.597 1181.951 C 888.756 1187.358, 896.826 1186.950, 900.309 1181.053 C 902.251 1177.767, 902.578 1168.998, 900.883 1165.684 C 897.845 1159.745, 890.049 1158.245, 882.259 1162.101 M 937.908 1161.890 C 920.227 1168.808, 910 1186.041, 910 1208.916 C 910 1230.075, 917.918 1245.934, 931.857 1252.692 C 936.768 1255.073, 938.733 1255.433, 947 1255.464 C 955.430 1255.496, 957.145 1255.183, 962.223 1252.690 C 968.643 1249.537, 973.702 1244.647, 979.271 1236.212 C 985.461 1226.835, 982.966 1224.014, 976.104 1232.632 C 971.277 1238.695, 966.955 1241, 960.415 1241 C 953.782 1241, 947.794 1237.850, 943.622 1232.167 C 939.419 1226.441, 935.819 1216.223, 935.636 1209.500 L 935.500 1204.500 959.250 1204.232 L 983 1203.964 983 1198.663 C 983 1183.662, 973.521 1167.861, 961.221 1162.361 C 954.657 1159.425, 944.721 1159.225, 937.908 1161.890 M 1023.500 1161.890 C 1008.203 1166.345, 999 1175.352, 999 1185.866 C 999 1196.636, 1014.077 1202.378, 1021.877 1194.578 C 1025.548 1190.907, 1025.443 1184.990, 1021.606 1179.277 C 1017.987 1173.888, 1018.581 1170.491, 1023.503 1168.434 C 1030.221 1165.627, 1038.896 1167.401, 1041.889 1172.193 C 1042.724 1173.532, 1043.440 1178.505, 1043.724 1184.944 L 1044.190 1195.500 1032.639 1201.362 C 1004.684 1215.549, 995.360 1225.575, 997.409 1239.244 C 1000.156 1257.560, 1018.958 1259.538, 1039 1243.618 C 1041.774 1241.415, 1043.622 1240.515, 1043.818 1241.272 C 1044.869 1245.334, 1047.600 1250.163, 1049.579 1251.460 C 1055.925 1255.618, 1066.202 1255.170, 1073.071 1250.437 C 1077.593 1247.321, 1081.333 1242.311, 1080.588 1240.369 C 1080.084 1239.055, 1079.748 1239.063, 1077.785 1240.438 C 1074.855 1242.490, 1072.292 1242.418, 1071.141 1240.250 C 1070.630 1239.287, 1070.051 1224.965, 1069.856 1208.421 L 1069.500 1178.343 1066.471 1173.421 C 1063.180 1168.074, 1056.072 1162.670, 1050.177 1161.033 C 1044.514 1159.459, 1030.273 1159.917, 1023.500 1161.890 M 1186.005 1161.668 C 1168.453 1167.809, 1157.669 1185.829, 1157.679 1209 C 1157.691 1236.748, 1170.849 1254.392, 1192.569 1255.786 C 1203.746 1256.503, 1211.769 1253.459, 1219.500 1245.567 C 1225.659 1239.281, 1231.605 1229.788, 1230.502 1228.003 C 1229.691 1226.691, 1227 1226.705, 1227 1228.022 C 1227 1229.891, 1218.550 1238.274, 1215.282 1239.648 C 1211.111 1241.401, 1203.832 1241.374, 1199.563 1239.591 C 1191.945 1236.408, 1183.970 1221.816, 1183.663 1210.500 L 1183.500 1204.500 1207.365 1204.232 L 1231.229 1203.963 1230.517 1197.232 C 1229.703 1189.537, 1226.724 1180.149, 1223.437 1174.916 C 1220.111 1169.624, 1212.529 1163.368, 1207.266 1161.575 C 1201.428 1159.586, 1191.837 1159.628, 1186.005 1161.668 M 1297.873 1162.503 C 1293.121 1164.978, 1286.765 1171.436, 1282.126 1178.500 L 1279.500 1182.500 1279 1172.500 L 1278.500 1162.500 1261.083 1162.500 C 1242.348 1162.500, 1239.071 1163.444, 1246.915 1166.583 C 1250.176 1167.887, 1251.197 1168.933, 1252.064 1171.855 C 1253.677 1177.297, 1252.925 1242.757, 1251.214 1245.752 C 1250.507 1246.990, 1248.369 1248.655, 1246.464 1249.451 C 1239.262 1252.460, 1242.399 1253, 1267.083 1253 C 1285.905 1253, 1291.076 1252.727, 1290.750 1251.750 C 1290.522 1251.063, 1289.472 1250.362, 1288.417 1250.194 C 1284.066 1249.499, 1281.104 1247.665, 1279.990 1244.976 C 1279.153 1242.954, 1278.934 1235.476, 1279.240 1219.312 C 1279.715 1194.240, 1280.513 1190.072, 1286.237 1182.750 C 1289.977 1177.965, 1293.636 1177.752, 1299.006 1182.005 C 1306.398 1187.859, 1313.794 1186.867, 1317.105 1179.576 C 1319.322 1174.695, 1319.471 1171.064, 1317.636 1166.672 C 1314.762 1159.793, 1306.445 1158.038, 1297.873 1162.503 M 1540.663 1162.390 C 1531.933 1166.065, 1526.041 1171.693, 1520.978 1181.192 C 1516.688 1189.241, 1515.027 1195.206, 1514.348 1205 C 1513.122 1222.673, 1521.581 1242.085, 1533.923 1249.918 C 1550.812 1260.638, 1575.125 1256.581, 1586.348 1241.171 C 1591.963 1233.459, 1593.975 1228.469, 1595.696 1217.990 C 1597.187 1208.902, 1597.196 1207.177, 1595.794 1198.599 C 1592.983 1181.397, 1585.052 1169.734, 1572.003 1163.613 C 1566.450 1161.008, 1564.112 1160.517, 1556 1160.248 C 1547.730 1159.974, 1545.744 1160.251, 1540.663 1162.390 M 1801.906 1161.508 C 1790.980 1164.505, 1783.806 1169.179, 1779.386 1176.180 C 1776.411 1180.893, 1775.433 1187.583, 1777.223 1190.970 C 1781.614 1199.276, 1794.885 1200.449, 1800.718 1193.046 C 1802.601 1190.657, 1802.271 1183.619, 1800.149 1180.885 C 1796.582 1176.289, 1795.845 1174.158, 1797.045 1171.915 C 1799.422 1167.475, 1809.379 1165.593, 1815.033 1168.517 C 1819.747 1170.955, 1821 1174.609, 1821 1185.917 L 1821 1195.934 1811.750 1200.571 C 1790.838 1211.055, 1781.235 1218.235, 1777.129 1226.456 C 1775.177 1230.365, 1774.848 1232.313, 1775.173 1238.061 C 1775.537 1244.492, 1775.828 1245.240, 1779.397 1248.895 C 1787.793 1257.493, 1799.776 1256.138, 1814.612 1244.913 L 1820.725 1240.288 1822.755 1245.094 C 1828.294 1258.203, 1846.402 1257.828, 1856.651 1244.391 C 1858.857 1241.499, 1859.098 1240.679, 1857.953 1239.971 C 1857.057 1239.417, 1855.963 1239.628, 1854.944 1240.551 C 1852.833 1242.461, 1850.565 1242.386, 1848.872 1240.349 C 1847.801 1239.060, 1847.390 1231.990, 1847 1208.099 C 1846.435 1173.592, 1846.589 1174.329, 1838.478 1167.190 C 1835.954 1164.968, 1831.809 1162.441, 1829.266 1161.575 C 1823.713 1159.683, 1808.695 1159.646, 1801.906 1161.508 M 1608.174 1163.664 C 1608.358 1164.619, 1609.935 1165.745, 1611.746 1166.214 C 1618.051 1167.848, 1618.400 1169.419, 1618.841 1198.174 C 1619.347 1231.158, 1618.553 1244.029, 1615.834 1246.948 C 1614.741 1248.121, 1612.531 1249.344, 1610.923 1249.665 C 1609.316 1249.987, 1608 1250.869, 1608 1251.625 C 1608 1252.753, 1612.303 1253, 1632 1253 C 1647.820 1253, 1656 1252.648, 1656 1251.969 C 1656 1251.401, 1655.213 1250.684, 1654.250 1250.375 C 1649.021 1248.695, 1647.062 1247.653, 1646.322 1246.158 C 1645.870 1245.246, 1645.275 1226.050, 1645 1203.500 L 1644.500 1162.500 1626.172 1162.227 C 1609.336 1161.976, 1607.871 1162.093, 1608.174 1163.664 M 942.774 1167.963 C 938.026 1171.698, 933.781 1186.254, 934.816 1195.250 L 935.133 1198 947.598 1198 C 957.338 1198, 960.180 1197.695, 960.598 1196.605 C 961.500 1194.255, 959.071 1176.038, 957.434 1172.873 C 953.830 1165.903, 947.913 1163.921, 942.774 1167.963 M 1190.133 1168.542 C 1186.137 1171.904, 1183.061 1180.401, 1182.309 1190.153 L 1181.704 1198 1194.983 1198 L 1208.262 1198 1207.750 1187.750 C 1207.185 1176.433, 1205.543 1171.359, 1201.390 1168.092 C 1197.831 1165.293, 1193.803 1165.454, 1190.133 1168.542 M 1551 1167.711 C 1543.507 1171.541, 1541.645 1181.352, 1542.213 1214 C 1542.640 1238.526, 1543.505 1242.892, 1548.751 1247.019 C 1552.128 1249.675, 1558.883 1249.667, 1562.271 1247.002 C 1567.373 1242.988, 1568.273 1237.868, 1568.759 1210.079 C 1569.138 1188.413, 1568.955 1183.738, 1567.520 1178.438 C 1564.750 1168.202, 1558.270 1163.995, 1551 1167.711 M 1702.500 1170.148 C 1696.406 1173.797, 1693.880 1182.044, 1693.255 1200.321 C 1692.277 1228.929, 1697.328 1244.007, 1707.885 1243.996 C 1712.682 1243.991, 1717.115 1241.147, 1720.900 1235.645 L 1724 1231.140 1723.975 1206.820 L 1723.950 1182.500 1720.489 1177.782 C 1718.585 1175.187, 1715.913 1172.334, 1714.551 1171.442 C 1711.306 1169.315, 1705.019 1168.640, 1702.500 1170.148 M 1039.409 1204.892 C 1034.767 1207.723, 1026.569 1216.281, 1024.674 1220.275 C 1022.063 1225.777, 1022.481 1231.388, 1025.777 1235.077 C 1029.476 1239.216, 1034.255 1239.421, 1039.905 1235.681 L 1044 1232.972 1044 1217.986 C 1044 1209.744, 1043.662 1203.002, 1043.250 1203.004 C 1042.838 1203.006, 1041.109 1203.856, 1039.409 1204.892 M 1814.962 1206.381 C 1808.316 1211.259, 1802.161 1218.694, 1800.882 1223.390 C 1799.232 1229.442, 1801.318 1234.922, 1806.173 1237.296 C 1809.581 1238.962, 1810.119 1238.977, 1813.636 1237.507 C 1820.980 1234.439, 1821 1234.385, 1821 1217.845 C 1821 1209.680, 1820.662 1203.011, 1820.250 1203.025 C 1819.838 1203.038, 1817.458 1204.549, 1814.962 1206.381 M 203.656 1292.133 C 200.207 1294.138, 199 1299.266, 199 1311.921 C 199 1325.139, 199.893 1328.376, 204.145 1330.575 C 207.692 1332.409, 210.372 1332.376, 214.093 1330.452 C 217.928 1328.469, 219 1325.520, 219 1316.954 C 219 1310.489, 218.844 1309.999, 216.602 1309.436 C 212.446 1308.393, 209.528 1309.303, 209.180 1311.750 C 209.005 1312.987, 209.342 1314.056, 209.930 1314.125 C 210.519 1314.194, 211.563 1314.306, 212.250 1314.375 C 213.645 1314.515, 214.453 1320.060, 213.582 1323.528 C 212.734 1326.909, 208.044 1327.773, 205.771 1324.966 C 204.322 1323.176, 204.002 1320.844, 204.014 1312.139 C 204.021 1306.288, 204.300 1300.483, 204.633 1299.239 C 205.808 1294.854, 213 1295.513, 213 1300.006 C 213 1302.096, 216.526 1303.287, 217.858 1301.647 C 219.339 1299.822, 216.821 1293.714, 214 1292.291 C 210.957 1290.756, 206.152 1290.682, 203.656 1292.133 M 276.229 1311.250 C 276.490 1330.743, 276.575 1331.500, 278.500 1331.500 C 280.304 1331.500, 280.549 1330.667, 281 1323 L 281.500 1314.500 286.812 1314.196 C 291.637 1313.919, 292.096 1313.689, 291.812 1311.696 C 291.543 1309.800, 290.782 1309.459, 286.250 1309.198 L 281 1308.895 281 1302.448 L 281 1296 287 1296 C 292.733 1296, 293 1295.889, 293 1293.500 C 293 1291.029, 292.901 1291, 284.479 1291 L 275.959 1291 276.229 1311.250 M 414 1311.570 L 414 1332.139 416.250 1331.820 C 418.335 1331.523, 418.537 1330.876, 419 1323 C 419.451 1315.333, 419.696 1314.500, 421.500 1314.500 C 423.098 1314.500, 424.007 1316.007, 426.022 1322 C 429.105 1331.169, 429.607 1332, 432.059 1332 C 434.575 1332, 434.514 1331.050, 431.394 1321.681 L 428.787 1313.855 431.060 1311.436 C 432.881 1309.497, 433.333 1307.871, 433.333 1303.254 C 433.333 1293.400, 430.709 1291, 419.935 1291 L 414 1291 414 1311.570 M 498.667 1291.667 C 498.300 1292.033, 498 1295.478, 498 1299.322 C 498 1306.028, 497.926 1306.243, 496.171 1304.655 C 495.165 1303.745, 493.478 1303.007, 492.421 1303.015 C 487.598 1303.054, 486 1306.779, 486 1317.980 C 486 1326.320, 486.208 1327.299, 488.455 1329.545 C 491.293 1332.384, 492.732 1332.577, 495.676 1330.514 C 497.552 1329.200, 497.863 1329.200, 498.367 1330.514 C 499.059 1332.318, 502.608 1332.490, 503.241 1330.750 C 503.850 1329.078, 503.854 1295.156, 503.245 1292.830 C 502.778 1291.043, 499.997 1290.337, 498.667 1291.667 M 999 1291.362 C 999 1291.631, 997.182 1297.847, 994.960 1305.175 C 992.738 1312.504, 989.780 1322.325, 988.388 1327 C 986.995 1331.675, 985.406 1336.954, 984.857 1338.730 C 983.615 1342.746, 984.338 1344, 987.895 1344 C 990.437 1344, 990.813 1343.492, 992.340 1338 L 994.008 1332 1002.393 1332 L 1010.777 1332 1011.451 1335.589 C 1012.632 1341.884, 1014.053 1344, 1017.101 1344 C 1018.631 1344, 1020.077 1343.662, 1020.316 1343.250 C 1020.554 1342.838, 1017.310 1331.025, 1013.107 1317 L 1005.464 1291.500 1002.232 1291.187 C 1000.454 1291.014, 999 1291.093, 999 1291.362 M 1366.233 1317.250 L 1366.500 1343.500 1369.500 1343.500 L 1372.500 1343.500 1372.767 1317.250 L 1373.033 1291 1369.500 1291 L 1365.967 1291 1366.233 1317.250 M 1474.667 1291.667 C 1474.300 1292.033, 1474 1293.608, 1474 1295.167 C 1474 1297.738, 1474.324 1298, 1477.500 1298 C 1480.833 1298, 1481 1297.833, 1481 1294.500 C 1481 1291.324, 1480.738 1291, 1478.167 1291 C 1476.608 1291, 1475.033 1291.300, 1474.667 1291.667 M 250.688 1293.646 C 250.309 1294.024, 250 1296.043, 250 1298.131 C 250 1300.906, 249.461 1302.218, 248 1303 C 245.437 1304.372, 245.430 1306.684, 247.986 1307.496 C 249.801 1308.072, 249.967 1309, 249.913 1318.294 C 249.858 1327.661, 250.030 1328.606, 252.096 1330.279 C 255.046 1332.667, 258.407 1332.153, 258.820 1329.250 C 259.032 1327.755, 258.624 1327, 257.605 1327 C 255.087 1327, 254 1323.572, 254 1315.635 C 254 1308.633, 254.148 1308.118, 256.240 1307.820 C 259.464 1307.360, 259.722 1304.225, 256.633 1303.050 C 254.582 1302.271, 254.063 1301.319, 253.810 1297.875 C 253.517 1293.885, 252.214 1292.120, 250.688 1293.646 M 323.688 1293.646 C 323.309 1294.024, 323 1296.043, 323 1298.131 C 323 1300.906, 322.461 1302.218, 321 1303 C 319.900 1303.589, 319 1304.699, 319 1305.468 C 319 1306.236, 319.900 1307.151, 321 1307.500 C 322.831 1308.081, 323 1309.013, 323 1318.511 C 323 1328.099, 323.169 1329.005, 325.223 1330.443 C 330.374 1334.051, 334.128 1330.701, 329.617 1326.521 C 327.216 1324.295, 327 1323.438, 327 1316.117 C 327 1308.605, 327.131 1308.120, 329.250 1307.820 C 332.477 1307.361, 332.936 1303.270, 329.809 1302.827 C 327.888 1302.555, 327.416 1301.756, 327 1298.078 C 326.526 1293.888, 325.208 1292.125, 323.688 1293.646 M 1065.250 1295.662 C 1064.493 1295.968, 1064 1298.064, 1064 1300.976 C 1064 1304.329, 1063.546 1305.960, 1062.500 1306.362 C 1061.675 1306.678, 1061 1308.090, 1061 1309.500 C 1061 1310.910, 1061.675 1312.322, 1062.500 1312.638 C 1063.696 1313.097, 1064.001 1315.267, 1064.006 1323.357 C 1064.014 1339.261, 1066.245 1344, 1073.723 1344 C 1076.802 1344, 1077 1343.788, 1077 1340.500 C 1077 1337.478, 1076.674 1337, 1074.613 1337 C 1071.700 1337, 1071.369 1335.259, 1071.819 1322.310 C 1072.117 1313.745, 1072.287 1313.100, 1074.319 1312.810 C 1075.968 1312.576, 1076.577 1311.707, 1076.813 1309.250 C 1077.093 1306.347, 1076.853 1306, 1074.563 1306 C 1072.161 1306, 1072 1305.692, 1072 1301.107 C 1072 1295.495, 1069.888 1293.791, 1065.250 1295.662 M 1453.713 1295.621 C 1453.321 1296.013, 1453 1298.456, 1453 1301.050 C 1453 1304.926, 1452.643 1305.860, 1451 1306.290 C 1448.277 1307.002, 1448.216 1311.982, 1450.922 1312.690 C 1452.672 1313.148, 1452.874 1314.358, 1453.172 1326.185 C 1453.497 1339.078, 1453.522 1339.197, 1456.369 1341.643 C 1458.378 1343.370, 1460.177 1344.018, 1462.369 1343.804 C 1465.102 1343.539, 1465.500 1343.124, 1465.500 1340.545 C 1465.500 1338.217, 1464.970 1337.465, 1463 1337.002 C 1460.531 1336.420, 1460.496 1336.267, 1460.219 1324.776 L 1459.938 1313.139 1462.719 1312.819 C 1465.071 1312.549, 1465.500 1312.038, 1465.500 1309.500 C 1465.500 1306.984, 1465.064 1306.450, 1462.800 1306.188 C 1460.300 1305.900, 1460.078 1305.493, 1459.800 1300.688 C 1459.527 1295.972, 1459.269 1295.473, 1456.963 1295.204 C 1455.567 1295.041, 1454.104 1295.229, 1453.713 1295.621 M 1492.713 1295.621 C 1492.321 1296.013, 1492 1298.456, 1492 1301.050 C 1492 1304.926, 1491.643 1305.860, 1490 1306.290 C 1487.275 1307.002, 1487.216 1311.982, 1489.924 1312.690 C 1491.681 1313.150, 1491.877 1314.359, 1492.174 1326.564 C 1492.544 1341.723, 1493.020 1342.791, 1499.812 1343.702 C 1503.609 1344.211, 1503.947 1344.058, 1504.576 1341.552 C 1505.321 1338.585, 1504.535 1337.380, 1501.500 1336.835 C 1499.654 1336.503, 1499.478 1335.575, 1499.218 1324.738 C 1498.955 1313.754, 1499.059 1313, 1500.846 1313 C 1503.464 1313, 1505.300 1310.522, 1504.515 1308.048 C 1504.100 1306.740, 1503.006 1306, 1501.485 1306 C 1499.318 1306, 1499.077 1305.528, 1498.802 1300.750 C 1498.527 1295.968, 1498.274 1295.474, 1495.963 1295.204 C 1494.567 1295.041, 1493.104 1295.229, 1492.713 1295.621 M 1550.713 1295.621 C 1550.321 1296.013, 1550 1298.508, 1550 1301.167 C 1550 1305.333, 1549.724 1306, 1548 1306 C 1546.431 1306, 1546 1306.667, 1546 1309.094 C 1546 1311.346, 1546.544 1312.329, 1548 1312.710 C 1549.865 1313.198, 1550.001 1314.084, 1550.022 1325.867 C 1550.048 1340.747, 1550.935 1342.779, 1557.807 1343.701 L 1562 1344.263 1562 1340.701 C 1562 1337.769, 1561.602 1337.083, 1559.750 1336.820 C 1557.582 1336.512, 1557.490 1336.073, 1557.219 1324.824 C 1556.942 1313.333, 1556.974 1313.142, 1559.219 1312.824 C 1560.978 1312.574, 1561.572 1311.756, 1561.813 1309.250 C 1562.092 1306.363, 1561.846 1306, 1559.616 1306 C 1557.291 1306, 1557.082 1305.609, 1556.802 1300.750 C 1556.527 1295.968, 1556.274 1295.474, 1553.963 1295.204 C 1552.567 1295.041, 1551.104 1295.229, 1550.713 1295.621 M 419 1302.557 L 419 1309.115 423.250 1308.807 L 427.500 1308.500 427.808 1303.095 C 428.152 1297.037, 427.369 1296.039, 422.250 1296.015 L 419 1296 419 1302.557 M 229.409 1303.972 C 226.070 1305.322, 224.744 1310.027, 225.154 1319.063 C 225.492 1326.503, 225.761 1327.398, 228.318 1329.597 C 229.854 1330.919, 232.376 1332, 233.921 1332 C 237.382 1332, 242 1328.529, 242 1325.927 C 242 1323.591, 238.811 1323.318, 237 1325.500 C 234.426 1328.601, 230 1326.578, 230 1322.300 C 230 1320.156, 230.406 1320, 236 1320 C 240.086 1320, 242.028 1319.601, 242.089 1318.750 C 242.597 1311.597, 241.753 1307.356, 239.401 1305.250 C 236.828 1302.946, 233.120 1302.472, 229.409 1303.972 M 298 1315.500 C 298 1326.667, 298.213 1328.213, 300 1330 C 302.403 1332.403, 304.786 1332.538, 307.777 1330.443 C 309.789 1329.034, 310 1329.034, 310 1330.443 C 310 1331.437, 310.904 1332, 312.500 1332 L 315 1332 315 1317.500 L 315 1303 312.500 1303 L 310 1303 310 1313.878 C 310 1325.550, 309.116 1327.806, 305.048 1326.515 C 303.141 1325.910, 303 1325.076, 303 1314.433 L 303 1303 300.500 1303 L 298 1303 298 1315.500 M 337.709 1303.624 C 336.650 1304.683, 336.853 1324.483, 337.952 1327.374 C 339.317 1330.965, 342.594 1332.506, 345.779 1331.055 C 347.539 1330.253, 348.622 1330.222, 349.352 1330.952 C 349.928 1331.528, 351.210 1332, 352.200 1332 C 353.851 1332, 354 1330.794, 354 1317.430 C 354 1302.893, 353.995 1302.862, 351.750 1303.180 C 349.590 1303.487, 349.489 1303.947, 349.218 1314.655 C 348.927 1326.175, 348.269 1327.808, 344.500 1326.362 C 342.747 1325.689, 342.835 1326.298, 342.647 1313.500 C 342.511 1304.251, 342.347 1303.478, 340.459 1303.208 C 339.336 1303.047, 338.099 1303.235, 337.709 1303.624 M 361.223 1317.250 C 361.494 1331.170, 361.552 1331.507, 363.750 1331.820 C 365.931 1332.129, 366.003 1331.869, 366.100 1323.320 C 366.232 1311.586, 366.824 1309.719, 370.781 1308.543 C 373.227 1307.816, 374 1307.020, 374 1305.226 C 374 1303.240, 373.643 1302.975, 371.750 1303.555 C 370.512 1303.934, 368.943 1304.690, 368.262 1305.235 C 367.395 1305.928, 366.838 1305.741, 366.405 1304.613 C 366.064 1303.726, 364.697 1303, 363.366 1303 L 360.945 1303 361.223 1317.250 M 381.635 1305.073 C 379.108 1307.060, 379 1307.548, 379 1316.962 C 379 1329.273, 380.302 1331.500, 387.500 1331.500 C 391.208 1331.500, 392.572 1331.011, 394.088 1329.139 C 395.140 1327.841, 396 1326.153, 396 1325.389 C 396 1323.503, 391.368 1323.599, 390.638 1325.500 C 389.806 1327.668, 385.268 1327.370, 384.035 1325.066 C 381.742 1320.781, 382.585 1320, 389.500 1320 L 396 1320 396 1314.950 C 396 1312.173, 395.343 1308.630, 394.540 1307.077 C 392.235 1302.621, 385.986 1301.650, 381.635 1305.073 M 441.861 1304.911 C 439.731 1306.634, 439.466 1307.758, 439.154 1316.392 C 438.810 1325.899, 438.828 1325.982, 441.827 1328.981 C 445.441 1332.595, 449.546 1332.931, 453.365 1329.927 C 456.766 1327.253, 456.898 1324, 453.607 1324 C 452.291 1324, 450.955 1324.675, 450.638 1325.500 C 449.313 1328.955, 444 1326.434, 444 1322.350 C 444 1320.312, 444.542 1320.072, 449.750 1319.800 L 455.500 1319.500 455.800 1313.754 C 456.061 1308.738, 455.781 1307.691, 453.595 1305.504 C 450.523 1302.432, 445.253 1302.165, 441.861 1304.911 M 465.455 1305.455 C 462.622 1308.287, 462.356 1309.816, 464.551 1310.658 C 465.448 1311.002, 467.152 1310.266, 468.596 1308.910 C 470.560 1307.065, 471.452 1306.795, 472.795 1307.642 C 473.733 1308.234, 474.500 1309.794, 474.500 1311.109 C 474.500 1313.036, 473.917 1313.555, 471.500 1313.785 C 466.769 1314.235, 464.142 1316.039, 462.948 1319.658 C 461.530 1323.953, 462.578 1328.686, 465.337 1330.454 C 466.683 1331.317, 469.766 1331.764, 473.500 1331.636 L 479.500 1331.432 479.782 1319.702 C 480.054 1308.362, 479.981 1307.890, 477.577 1305.486 C 474.206 1302.115, 468.809 1302.100, 465.455 1305.455 M 509.006 1304.180 C 509.014 1305.807, 514.728 1325.750, 515.582 1327.132 C 517.798 1330.719, 514.842 1339, 511.345 1339 C 509.755 1339, 509.529 1342.591, 511.060 1343.537 C 512.901 1344.675, 517.786 1341.938, 518.865 1339.164 C 519.736 1336.926, 528 1304.443, 528 1303.258 C 528 1303.043, 526.773 1303.010, 525.273 1303.184 C 522.719 1303.480, 522.450 1303.993, 521.023 1311.301 C 520.185 1315.591, 519.050 1319.037, 518.500 1318.958 C 517.950 1318.879, 516.574 1315.369, 515.442 1311.157 C 513.739 1304.817, 513.008 1303.445, 511.192 1303.180 C 509.880 1302.989, 509.002 1303.391, 509.006 1304.180 M 1001.784 1303.567 C 1000.530 1305.656, 995.962 1324.129, 996.488 1324.981 C 996.976 1325.770, 1006.838 1325.278, 1007.863 1324.414 C 1008.339 1324.012, 1006.225 1314.927, 1004.059 1308.067 C 1003.116 1305.079, 1002.092 1303.054, 1001.784 1303.567 M 1092.600 1306.456 C 1086.169 1308.784, 1085.056 1311.363, 1084.882 1324.348 C 1084.764 1333.114, 1085.064 1335.425, 1086.675 1338.184 C 1089.325 1342.721, 1092.468 1344.158, 1098.758 1343.709 C 1108.367 1343.024, 1111.489 1337.569, 1110.818 1322.638 C 1110.363 1312.542, 1108.838 1308.966, 1104.201 1307.136 C 1099.273 1305.190, 1096.540 1305.029, 1092.600 1306.456 M 1165.169 1306.076 C 1163.337 1306.463, 1160.525 1308.039, 1158.919 1309.577 C 1156.006 1312.368, 1156 1312.401, 1156 1324.552 C 1156 1335.146, 1156.256 1337.055, 1157.966 1339.230 C 1160.761 1342.782, 1165.210 1344.349, 1170.734 1343.726 C 1177.221 1342.995, 1180.583 1339.185, 1181.546 1331.475 C 1182.373 1324.861, 1181.422 1313.649, 1179.817 1311.078 C 1177.348 1307.125, 1170.792 1304.886, 1165.169 1306.076 M 1204.011 1306.192 C 1202.653 1306.694, 1200.802 1307.775, 1199.898 1308.593 C 1198.426 1309.924, 1198.196 1309.859, 1197.701 1307.966 C 1197.274 1306.332, 1196.508 1305.926, 1194.324 1306.176 L 1191.500 1306.500 1191.500 1325 L 1191.500 1343.500 1194.500 1343.500 L 1197.500 1343.500 1197.757 1329.500 C 1197.993 1316.662, 1198.189 1315.355, 1200.118 1313.750 C 1202.666 1311.631, 1204.970 1311.527, 1207.559 1313.416 C 1209.279 1314.672, 1209.557 1316.466, 1210 1329.166 L 1210.500 1343.500 1213.500 1343.500 L 1216.500 1343.500 1217 1329.166 C 1217.443 1316.466, 1217.721 1314.672, 1219.441 1313.416 C 1222.030 1311.527, 1224.334 1311.631, 1226.882 1313.750 C 1228.811 1315.355, 1229.007 1316.662, 1229.243 1329.500 L 1229.500 1343.500 1232.500 1343.500 L 1235.500 1343.500 1235.762 1329 C 1235.984 1316.787, 1235.747 1313.948, 1234.262 1311 C 1231.217 1304.952, 1223.059 1303.962, 1218.428 1309.079 C 1216.678 1311.013, 1216.642 1311.013, 1214.491 1308.992 C 1211.596 1306.272, 1207.066 1305.062, 1204.011 1306.192 M 1252.500 1306.864 C 1246.546 1309.570, 1245.500 1312.376, 1245.500 1325.638 L 1245.500 1336.964 1248.657 1340.120 C 1254.605 1346.066, 1265.915 1344.933, 1269.483 1338.033 C 1271.396 1334.333, 1271.578 1315.681, 1269.735 1312.096 C 1266.745 1306.278, 1258.978 1303.920, 1252.500 1306.864 M 1325.500 1305.516 C 1324.950 1305.686, 1323.224 1306.108, 1321.665 1306.453 C 1317.147 1307.454, 1314 1311.583, 1314 1316.511 C 1314 1322.738, 1316.582 1325.400, 1324.731 1327.572 C 1331.697 1329.429, 1332.958 1330.286, 1332.985 1333.179 C 1333.031 1338.231, 1324.566 1339.793, 1320.561 1335.472 C 1318.485 1333.231, 1317.921 1333.079, 1315.609 1334.132 C 1312.452 1335.571, 1312.333 1336.907, 1315.096 1339.873 C 1317.873 1342.854, 1321.133 1344.001, 1326.815 1343.996 C 1335.420 1343.989, 1340.997 1338.127, 1339.580 1330.577 C 1338.686 1325.809, 1334.304 1322.367, 1328.032 1321.504 C 1324.650 1321.039, 1322.512 1320.142, 1321.565 1318.790 C 1320.122 1316.729, 1320.500 1314.085, 1322.427 1312.765 C 1324.526 1311.328, 1329.404 1312.031, 1331.591 1314.086 C 1333.494 1315.873, 1334.146 1315.997, 1336.156 1314.950 C 1339.364 1313.279, 1339.295 1313.420, 1338.051 1311.096 C 1336.428 1308.063, 1328.569 1304.569, 1325.500 1305.516 M 1396.668 1306.114 C 1395.130 1306.525, 1393.212 1307.409, 1392.405 1308.079 C 1391.226 1309.057, 1390.687 1308.954, 1389.663 1307.553 C 1388.888 1306.494, 1387.429 1305.945, 1385.944 1306.155 L 1383.500 1306.500 1383.500 1325 L 1383.500 1343.500 1386.500 1343.500 L 1389.500 1343.500 1390 1329.166 C 1390.443 1316.466, 1390.721 1314.672, 1392.441 1313.416 C 1395.269 1311.353, 1397.764 1311.673, 1400.545 1314.455 C 1402.910 1316.819, 1403 1317.406, 1403 1330.455 L 1403 1344 1405.917 1344 C 1407.521 1344, 1408.983 1343.559, 1409.167 1343.019 C 1409.350 1342.480, 1409.275 1335.089, 1409 1326.596 C 1408.532 1312.155, 1408.349 1310.992, 1406.171 1308.678 C 1403.485 1305.823, 1400.632 1305.053, 1396.668 1306.114 M 1427.956 1305.791 C 1422.211 1306.286, 1418.830 1309.715, 1418.262 1315.625 C 1417.626 1322.239, 1420.168 1325.191, 1428.500 1327.515 C 1435.351 1329.427, 1437 1330.500, 1437 1333.051 C 1437 1338.226, 1428.624 1339.856, 1424.561 1335.472 C 1422.485 1333.231, 1421.921 1333.079, 1419.609 1334.132 C 1416.576 1335.514, 1416.439 1336.214, 1418.566 1339.460 C 1420.473 1342.371, 1424.827 1344, 1430.699 1344 C 1438.861 1344, 1444 1339.230, 1444 1331.653 C 1444 1326.757, 1438.942 1322.455, 1432.075 1321.510 C 1428.653 1321.040, 1426.515 1320.146, 1425.565 1318.790 C 1424.122 1316.729, 1424.500 1314.085, 1426.427 1312.765 C 1428.525 1311.329, 1433.688 1311.998, 1435.439 1313.933 C 1438.151 1316.929, 1443.780 1314.325, 1441.956 1310.918 C 1440.125 1307.496, 1434.038 1305.267, 1427.956 1305.791 M 1580.209 1306.058 C 1572.720 1307.665, 1570 1312.792, 1570 1325.302 C 1570 1333.433, 1570.308 1335.162, 1572.280 1338.088 C 1575.216 1342.444, 1578.333 1343.967, 1584.350 1343.985 C 1588.606 1343.998, 1589.647 1343.553, 1592.845 1340.355 L 1596.489 1336.711 1593.239 1335.171 C 1590.213 1333.738, 1589.895 1333.762, 1588.612 1335.516 C 1586.726 1338.095, 1580.271 1338.091, 1578.383 1335.509 C 1577.622 1334.469, 1577 1332.354, 1577 1330.809 L 1577 1328 1586.500 1328 L 1596 1328 1596 1321.901 C 1596 1315.159, 1593.896 1309.550, 1590.730 1307.856 C 1587.167 1305.948, 1583.577 1305.335, 1580.209 1306.058 M 1028 1321.831 L 1028 1337.788 1030.901 1340.894 C 1033.189 1343.344, 1034.628 1344, 1037.710 1344 C 1039.859 1344, 1042.491 1343.339, 1043.559 1342.532 C 1046.057 1340.642, 1047 1340.634, 1047 1342.500 C 1047 1343.500, 1048 1344, 1050 1344 C 1052.429 1344, 1053.010 1343.572, 1053.052 1341.750 C 1053.109 1339.266, 1053.096 1307.947, 1053.037 1306.750 C 1053.017 1306.338, 1051.650 1306, 1050 1306 L 1047 1306 1047 1319.809 C 1047 1335.224, 1046.392 1337.066, 1041.254 1337.212 C 1035.510 1337.375, 1035.083 1336.282, 1034.777 1320.650 L 1034.500 1306.500 1031.250 1306.187 L 1028 1305.873 1028 1321.831 M 1120 1325.063 L 1120 1344.127 1123.250 1343.813 L 1126.500 1343.500 1127 1329.166 C 1127.443 1316.466, 1127.721 1314.672, 1129.441 1313.416 C 1132.078 1311.492, 1134.330 1311.637, 1137.139 1313.911 C 1139.384 1315.727, 1139.517 1316.515, 1139.846 1329.911 L 1140.192 1344 1143.096 1344 L 1146 1344 1146 1328.434 C 1146 1312.780, 1145.462 1309.873, 1142.087 1307.282 C 1139.552 1305.336, 1132.612 1305.731, 1129.747 1307.984 C 1127.232 1309.963, 1127.224 1309.963, 1126.706 1307.984 C 1126.330 1306.545, 1125.338 1306, 1123.094 1306 L 1120 1306 1120 1325.063 M 1279.735 1307.247 C 1279.449 1307.992, 1279.367 1313.304, 1279.553 1319.051 C 1279.738 1324.798, 1279.914 1331.447, 1279.945 1333.827 C 1280.055 1342.467, 1289.657 1347.204, 1296.365 1341.927 L 1299 1339.855 1299 1341.991 C 1299 1343.798, 1299.500 1344.079, 1302.250 1343.813 L 1305.500 1343.500 1305.500 1325 L 1305.500 1306.500 1302.325 1306.192 L 1299.149 1305.884 1298.825 1320.481 C 1298.566 1332.114, 1298.195 1335.269, 1297 1336.023 C 1294.799 1337.411, 1289.414 1337.204, 1288.152 1335.683 C 1287.510 1334.909, 1286.944 1328.621, 1286.779 1320.433 L 1286.500 1306.500 1283.378 1306.196 C 1281.441 1306.008, 1280.058 1306.407, 1279.735 1307.247 M 1474.444 1307.285 C 1474.173 1307.992, 1474.074 1316.429, 1474.225 1326.035 L 1474.500 1343.500 1477.750 1343.813 L 1481 1344.127 1481 1325.063 L 1481 1306 1477.969 1306 C 1476.301 1306, 1474.715 1306.578, 1474.444 1307.285 M 1513 1321.069 C 1513 1334.547, 1513.227 1336.632, 1515.011 1339.518 C 1517.879 1344.158, 1524.393 1345.514, 1528.842 1342.398 C 1530.951 1340.921, 1531.227 1340.928, 1532.371 1342.493 C 1533.115 1343.510, 1534.591 1344.052, 1536.056 1343.845 L 1538.500 1343.500 1538.500 1325 L 1538.500 1306.500 1535.500 1306.500 L 1532.500 1306.500 1532 1320.704 C 1531.703 1329.135, 1531.048 1335.359, 1530.387 1336.017 C 1528.873 1337.526, 1523.186 1337.585, 1521.704 1336.107 C 1520.931 1335.337, 1520.321 1329.822, 1520 1320.704 L 1519.500 1306.500 1516.250 1306.187 L 1513 1305.873 1513 1321.069 M 230.411 1310.498 C 229.519 1314.051, 230.559 1316, 233.346 1316 C 236.883 1316, 238.574 1313.554, 237.168 1310.470 C 235.600 1307.027, 231.278 1307.045, 230.411 1310.498 M 383.847 1310.436 C 382.243 1313.956, 383.402 1316, 387 1316 C 390.435 1316, 391.543 1314.300, 390.589 1310.498 C 389.727 1307.065, 385.401 1307.025, 383.847 1310.436 M 444.628 1309.528 C 444.282 1310.427, 444 1312.280, 444 1313.645 C 444 1315.842, 444.372 1316.091, 447.250 1315.813 C 450.238 1315.525, 450.500 1315.218, 450.500 1312 C 450.500 1308.967, 450.150 1308.459, 447.878 1308.196 C 446.169 1307.998, 445.037 1308.462, 444.628 1309.528 M 491.628 1309.528 C 491.282 1310.427, 491 1314.222, 491 1317.959 C 491 1325.141, 492.244 1327.485, 495.702 1326.819 C 497.274 1326.516, 497.500 1325.341, 497.500 1317.486 C 497.500 1308.533, 497.490 1308.499, 494.878 1308.196 C 493.169 1307.998, 492.037 1308.462, 491.628 1309.528 M 1094.250 1313.522 C 1092.180 1314.986, 1092 1315.891, 1092 1324.857 C 1092 1331.101, 1092.431 1335.031, 1093.200 1335.800 C 1094.912 1337.512, 1100.573 1337.284, 1102.429 1335.429 C 1104.443 1333.414, 1104.620 1317.400, 1102.656 1314.816 C 1100.730 1312.282, 1096.849 1311.684, 1094.250 1313.522 M 1166 1312.741 C 1162.937 1313.932, 1162.063 1316.550, 1162.032 1324.639 C 1161.995 1333.992, 1163.641 1337.250, 1168.400 1337.250 C 1173.215 1337.250, 1174.486 1334.893, 1174.618 1325.723 C 1174.749 1316.600, 1173.791 1313.447, 1170.628 1312.598 C 1168.195 1311.945, 1168.034 1311.950, 1166 1312.741 M 1255.280 1313.020 C 1254.059 1313.511, 1252.774 1315.054, 1252.424 1316.448 C 1251.467 1320.259, 1252.352 1334.752, 1253.618 1336.018 C 1255.341 1337.741, 1260.931 1337.498, 1262.810 1335.618 C 1264.148 1334.281, 1264.500 1332.041, 1264.500 1324.876 C 1264.500 1316.569, 1264.306 1315.666, 1262.139 1313.912 C 1259.548 1311.813, 1258.589 1311.689, 1255.280 1313.020 M 1578.557 1314.223 C 1577.701 1315.445, 1577 1317.695, 1577 1319.223 C 1577 1321.974, 1577.060 1322, 1583.500 1322 C 1589.402 1322, 1590 1321.810, 1590 1319.934 C 1590 1317.582, 1588.233 1313.856, 1586.600 1312.765 C 1584.323 1311.245, 1580.108 1312.008, 1578.557 1314.223 M 468.480 1320.390 C 466.345 1323.649, 467.341 1327, 470.445 1327 C 473.504 1327, 475.219 1324.770, 474.822 1321.310 C 474.381 1317.463, 470.744 1316.935, 468.480 1320.390" stroke="none" fill="#373737" fill-rule="evenodd"/></svg>